<svg xmlns="http://www.w3.org/2000/svg" xmlns:xlink="http://www.w3.org/1999/xlink" width="500" zoomAndPan="magnify" viewBox="0 0 375.12 383.03998" height="500" preserveAspectRatio="xMidYMid meet" version="1.0"><defs><clipPath id="bb6c75581f"><path d="M 54.824219 50.5 L 319.660156 50.5 L 319.660156 315 L 54.824219 315 Z M 54.824219 50.5 " clip-rule="nonzero"/></clipPath></defs><path fill="#f2c400" d="M 116.476562 146.414062 L 136.039062 146.414062 C 136.535156 146.414062 137.015625 146.511719 137.472656 146.699219 C 137.933594 146.890625 138.339844 147.160156 138.691406 147.511719 C 139.042969 147.863281 139.3125 148.269531 139.503906 148.730469 C 139.695312 149.191406 139.789062 149.667969 139.789062 150.164062 L 139.789062 257.757812 C 139.789062 258.253906 139.695312 258.734375 139.503906 259.191406 C 139.3125 259.652344 139.042969 260.058594 138.691406 260.410156 C 138.339844 260.761719 137.933594 261.03125 137.472656 261.222656 C 137.015625 261.414062 136.535156 261.507812 136.039062 261.507812 L 116.476562 261.507812 C 115.980469 261.507812 115.503906 261.414062 115.042969 261.222656 C 114.582031 261.03125 114.175781 260.761719 113.824219 260.410156 C 113.472656 260.058594 113.203125 259.652344 113.011719 259.191406 C 112.820312 258.734375 112.726562 258.253906 112.726562 257.757812 L 112.726562 150.164062 C 112.726562 149.667969 112.820312 149.191406 113.011719 148.730469 C 113.203125 148.269531 113.472656 147.863281 113.824219 147.511719 C 114.175781 147.160156 114.582031 146.890625 115.042969 146.699219 C 115.503906 146.511719 115.980469 146.414062 116.476562 146.414062 Z M 116.476562 146.414062 " fill-opacity="1" fill-rule="nonzero"/><path fill="#f2c400" d="M 142.015625 119.871094 C 141.984375 110.648438 135.367188 103.957031 126.257812 103.957031 C 117.152344 103.957031 110.28125 110.824219 110.28125 119.933594 C 110.28125 124.171875 111.828125 128.117188 114.632812 131.035156 C 117.519531 134.039062 121.488281 135.691406 125.816406 135.691406 C 130.605469 135.691406 134.886719 134 137.863281 130.917969 C 140.652344 128.03125 142.125 124.136719 142.015625 119.933594 C 142.015625 119.914062 142.015625 119.898438 142.015625 119.871094 Z M 142.015625 119.871094 " fill-opacity="1" fill-rule="nonzero"/><path fill="#f2c400" d="M 249.160156 153.984375 C 239.417969 145.269531 228.003906 143.96875 222.066406 143.96875 C 213.195312 143.96875 204.742188 146.339844 197.617188 150.824219 C 194.5 152.785156 191.6875 155.113281 189.175781 157.800781 L 188.683594 149.925781 C 188.652344 149.445312 188.535156 148.992188 188.332031 148.558594 C 188.128906 148.128906 187.855469 147.75 187.503906 147.421875 C 187.15625 147.09375 186.761719 146.84375 186.316406 146.667969 C 185.871094 146.492188 185.410156 146.40625 184.933594 146.40625 L 167.605469 146.40625 C 167.34375 146.40625 167.089844 146.433594 166.835938 146.484375 C 166.585938 146.539062 166.339844 146.617188 166.101562 146.71875 C 165.867188 146.824219 165.644531 146.949219 165.433594 147.097656 C 165.222656 147.25 165.03125 147.417969 164.855469 147.609375 C 164.679688 147.796875 164.523438 148 164.390625 148.222656 C 164.257812 148.445312 164.148438 148.675781 164.0625 148.921875 C 163.976562 149.164062 163.917969 149.414062 163.886719 149.667969 C 163.851562 149.925781 163.84375 150.183594 163.863281 150.441406 C 164.480469 158.652344 164.742188 167.277344 164.742188 179.277344 L 164.742188 257.757812 C 164.742188 258.253906 164.835938 258.734375 165.027344 259.191406 C 165.21875 259.652344 165.488281 260.058594 165.839844 260.410156 C 166.191406 260.761719 166.597656 261.03125 167.058594 261.222656 C 167.515625 261.414062 167.996094 261.507812 168.492188 261.507812 L 188.054688 261.507812 C 188.550781 261.507812 189.03125 261.414062 189.492188 261.222656 C 189.949219 261.03125 190.355469 260.761719 190.707031 260.410156 C 191.058594 260.058594 191.332031 259.652344 191.519531 259.191406 C 191.710938 258.734375 191.804688 258.253906 191.804688 257.757812 L 191.804688 193.070312 C 191.804688 190.027344 192.210938 187.171875 192.914062 185.234375 C 192.9375 185.175781 192.957031 185.113281 192.976562 185.046875 C 195.621094 176.421875 203.648438 167.695312 215.621094 167.695312 C 223.03125 167.695312 228.347656 170.230469 231.882812 175.441406 C 235.070312 180.152344 236.757812 187.171875 236.757812 195.730469 L 236.757812 257.757812 C 236.757812 258.253906 236.855469 258.734375 237.046875 259.191406 C 237.234375 259.652344 237.507812 260.058594 237.859375 260.410156 C 238.210938 260.761719 238.617188 261.03125 239.074219 261.222656 C 239.535156 261.414062 240.011719 261.507812 240.511719 261.507812 L 260.074219 261.507812 C 260.570312 261.507812 261.050781 261.414062 261.507812 261.222656 C 261.96875 261.03125 262.375 260.761719 262.726562 260.410156 C 263.078125 260.058594 263.347656 259.652344 263.539062 259.191406 C 263.730469 258.734375 263.824219 258.253906 263.824219 257.757812 L 263.824219 193.511719 C 263.824219 184.359375 262.441406 176.25 259.714844 169.402344 C 257.265625 163.246094 253.710938 158.054688 249.160156 153.984375 Z M 249.160156 153.984375 " fill-opacity="1" fill-rule="nonzero"/><g clip-path="url(#bb6c75581f)"><path fill="#f2c400" d="M 284.859375 50.5 L 89.253906 50.5 C 70.269531 50.5 54.824219 65.945312 54.824219 84.929688 L 54.824219 280.535156 C 54.824219 299.515625 70.269531 314.964844 89.253906 314.964844 L 284.859375 314.964844 C 303.839844 314.964844 319.285156 299.515625 319.285156 280.535156 L 319.285156 84.929688 C 319.285156 65.945312 303.839844 50.5 284.859375 50.5 Z M 295.113281 86.597656 L 295.113281 278.867188 C 295.109375 279.648438 295.035156 280.425781 294.878906 281.191406 C 294.726562 281.960938 294.5 282.703125 294.199219 283.425781 C 293.902344 284.148438 293.535156 284.835938 293.097656 285.488281 C 292.664062 286.136719 292.167969 286.738281 291.617188 287.292969 C 291.0625 287.847656 290.460938 288.339844 289.808594 288.773438 C 289.160156 289.210938 288.472656 289.578125 287.75 289.878906 C 287.027344 290.175781 286.28125 290.402344 285.515625 290.558594 C 284.746094 290.710938 283.972656 290.789062 283.191406 290.789062 L 90.921875 290.789062 C 90.136719 290.789062 89.363281 290.710938 88.597656 290.558594 C 87.828125 290.402344 87.082031 290.175781 86.359375 289.878906 C 85.636719 289.578125 84.953125 289.210938 84.300781 288.773438 C 83.648438 288.339844 83.046875 287.847656 82.496094 287.292969 C 81.941406 286.738281 81.449219 286.136719 81.011719 285.488281 C 80.578125 284.835938 80.210938 284.148438 79.910156 283.425781 C 79.609375 282.703125 79.382812 281.960938 79.230469 281.191406 C 79.078125 280.425781 79 279.648438 79 278.867188 L 79 86.597656 C 79 85.816406 79.078125 85.039062 79.230469 84.273438 C 79.382812 83.503906 79.609375 82.761719 79.910156 82.039062 C 80.210938 81.316406 80.578125 80.628906 81.011719 79.976562 C 81.449219 79.328125 81.941406 78.726562 82.496094 78.171875 C 83.046875 77.617188 83.648438 77.125 84.300781 76.6875 C 84.953125 76.253906 85.636719 75.886719 86.359375 75.585938 C 87.082031 75.285156 87.828125 75.058594 88.597656 74.90625 C 89.363281 74.753906 90.136719 74.675781 90.921875 74.675781 L 283.191406 74.675781 C 283.972656 74.675781 284.746094 74.753906 285.515625 74.90625 C 286.28125 75.058594 287.027344 75.285156 287.75 75.585938 C 288.472656 75.886719 289.160156 76.253906 289.808594 76.6875 C 290.460938 77.125 291.0625 77.617188 291.617188 78.171875 C 292.167969 78.726562 292.664062 79.328125 293.097656 79.976562 C 293.535156 80.628906 293.902344 81.316406 294.199219 82.039062 C 294.5 82.761719 294.726562 83.503906 294.878906 84.273438 C 295.035156 85.039062 295.109375 85.816406 295.113281 86.597656 Z M 295.113281 86.597656 " fill-opacity="1" fill-rule="nonzero"/></g></svg>