<svg xmlns="http://www.w3.org/2000/svg" xmlns:xlink="http://www.w3.org/1999/xlink" width="500" zoomAndPan="magnify" viewBox="0 0 375.12 383.03998" height="500" preserveAspectRatio="xMidYMid meet" version="1.0"><defs><clipPath id="57519786c9"><path d="M 120.523438 46.210938 L 253.6875 46.210938 L 253.6875 327.503906 L 120.523438 327.503906 Z M 120.523438 46.210938 " clip-rule="nonzero"/></clipPath></defs><g clip-path="url(#57519786c9)"><path fill="#f2c400" d="M 222.894531 92.917969 L 253.59375 92.917969 L 253.59375 46.632812 L 214.394531 46.632812 L 214.394531 46.808594 C 162.851562 48.699219 152.226562 77.570312 151.339844 108.089844 L 151.222656 108.089844 L 151.222656 140.207031 L 120.523438 140.207031 L 120.523438 186.554688 L 151.222656 186.554688 L 151.222656 327.417969 L 206.304688 327.417969 L 206.304688 186.554688 L 245.800781 186.554688 L 253.59375 140.207031 L 206.304688 140.207031 L 206.304688 111.457031 C 206.304688 101.242188 213.152344 92.917969 222.894531 92.917969 Z M 222.894531 92.917969 " fill-opacity="1" fill-rule="nonzero"/></g></svg>