<svg xmlns="http://www.w3.org/2000/svg" xmlns:xlink="http://www.w3.org/1999/xlink" width="500" zoomAndPan="magnify" viewBox="0 0 375.12 383.03998" height="500" preserveAspectRatio="xMidYMid meet" version="1.0"><defs><clipPath id="fe9c5c16e9"><path d="M 48.144531 48.113281 L 325.699219 48.113281 L 325.699219 325.667969 L 48.144531 325.667969 Z M 48.144531 48.113281 " clip-rule="nonzero"/></clipPath></defs><g clip-path="url(#fe9c5c16e9)"><path fill="#f2c400" d="M 187.824219 48.113281 C 149.554688 48.113281 144.964844 48.113281 130.421875 48.878906 C 115.878906 48.878906 105.164062 51.941406 96.746094 55 C 87.558594 58.828125 79.90625 63.421875 72.253906 71.074219 C 64.597656 78.726562 60.007812 86.382812 56.179688 95.566406 C 52.351562 104.75 50.054688 114.703125 50.054688 129.242188 C 48.527344 145.316406 48.527344 149.910156 48.527344 187.414062 C 48.527344 225.683594 48.527344 230.273438 49.289062 244.816406 C 49.289062 259.359375 52.351562 270.074219 55.414062 278.492188 C 59.242188 287.679688 63.832031 295.332031 71.488281 302.984375 C 79.140625 310.640625 86.792969 315.230469 95.980469 319.058594 C 105.164062 322.886719 115.113281 325.183594 129.65625 325.183594 C 144.199219 325.183594 149.554688 325.949219 187.058594 325.949219 C 224.5625 325.949219 229.921875 325.949219 244.464844 325.183594 C 259.007812 325.183594 269.722656 322.121094 278.140625 319.058594 C 287.324219 315.230469 294.980469 310.640625 302.632812 302.984375 C 310.289062 295.332031 314.878906 287.679688 318.707031 278.492188 C 321.769531 269.308594 324.828125 259.359375 324.828125 244.816406 C 324.828125 230.273438 325.59375 224.917969 325.59375 187.414062 C 325.59375 149.144531 325.59375 144.550781 324.828125 130.007812 C 324.828125 115.464844 321.769531 104.75 318.707031 96.332031 C 314.878906 87.148438 310.289062 79.492188 302.632812 71.839844 C 294.980469 64.1875 287.324219 59.59375 278.140625 55.765625 C 268.957031 51.941406 259.007812 49.644531 244.464844 49.644531 C 230.6875 48.113281 226.09375 48.113281 187.824219 48.113281 Z M 175.578125 73.371094 C 179.40625 73.371094 183.234375 73.371094 187.824219 73.371094 C 225.328125 73.371094 229.15625 73.371094 244.464844 74.136719 C 258.242188 74.136719 265.128906 77.199219 270.488281 78.726562 C 277.375 81.023438 281.96875 84.085938 286.558594 89.445312 C 291.152344 94.035156 294.214844 98.628906 297.277344 105.515625 C 298.808594 110.109375 301.101562 117.761719 301.867188 131.539062 C 301.867188 146.082031 302.632812 150.675781 302.632812 188.179688 C 302.632812 225.683594 302.632812 229.507812 301.867188 244.816406 C 301.867188 258.59375 298.804688 265.480469 297.277344 270.839844 C 294.980469 277.726562 291.917969 282.320312 286.558594 286.914062 C 281.96875 291.503906 277.375 294.566406 270.488281 297.628906 C 265.894531 299.925781 258.242188 301.457031 244.464844 302.222656 C 229.921875 302.222656 225.328125 302.984375 187.824219 302.984375 C 150.320312 302.984375 146.496094 302.984375 131.1875 302.222656 C 117.410156 302.222656 110.523438 299.160156 105.164062 297.628906 C 98.277344 295.332031 93.683594 292.269531 89.089844 286.914062 C 84.5 282.320312 81.4375 277.726562 78.375 270.839844 C 76.84375 266.246094 74.546875 258.59375 73.785156 244.816406 C 73.785156 230.273438 73.019531 225.683594 73.019531 188.179688 C 73.019531 150.675781 73.019531 146.847656 73.785156 131.539062 C 73.785156 117.761719 76.84375 110.875 78.375 105.515625 C 80.671875 98.628906 83.734375 94.035156 89.089844 89.445312 C 93.683594 84.851562 98.277344 81.789062 105.164062 78.726562 C 109.757812 76.433594 117.410156 74.902344 131.1875 74.136719 C 144.199219 74.136719 148.792969 74.136719 174.8125 73.371094 Z M 187.824219 116.230469 C 148.027344 116.230469 115.878906 148.378906 115.878906 188.179688 C 115.878906 227.976562 148.027344 260.125 187.824219 260.125 C 227.625 260.125 259.773438 227.976562 259.773438 188.179688 C 259.773438 148.378906 227.625 116.230469 187.824219 116.230469 Z M 187.824219 141.488281 C 213.847656 141.488281 234.515625 162.15625 234.515625 188.179688 C 234.515625 214.203125 213.847656 234.867188 187.824219 234.867188 C 161.800781 234.867188 141.136719 214.203125 141.136719 188.179688 C 141.136719 162.15625 161.800781 141.488281 187.824219 141.488281 Z M 187.824219 141.488281 " fill-opacity="1" fill-rule="nonzero"/></g></svg>