<svg xmlns="http://www.w3.org/2000/svg" xmlns:xlink="http://www.w3.org/1999/xlink" width="500" zoomAndPan="magnify" viewBox="0 0 375.12 383.03998" height="500" preserveAspectRatio="xMidYMid meet" version="1.0"><defs><clipPath id="a177493cb5"><path d="M 47 46.140625 L 327.816406 46.140625 L 327.816406 327 L 47 327 Z M 47 46.140625 " clip-rule="nonzero"/></clipPath></defs><g clip-path="url(#a177493cb5)"><path fill="#f2c400" d="M 186.960938 46.398438 C 108.917969 46.660156 46.542969 110.117188 47.5625 188.152344 C 47.65625 196.007812 48.40625 203.800781 49.816406 211.527344 C 51.230469 219.253906 53.277344 226.808594 55.96875 234.191406 C 58.65625 241.574219 61.949219 248.675781 65.839844 255.5 C 69.730469 262.324219 74.164062 268.773438 79.148438 274.847656 C 79.933594 275.808594 80.558594 276.867188 81.027344 278.019531 C 81.496094 279.167969 81.785156 280.363281 81.890625 281.601562 C 82 282.839844 81.925781 284.066406 81.664062 285.28125 C 81.402344 286.496094 80.96875 287.644531 80.363281 288.730469 L 68.3125 310.324219 C 64.972656 316.3125 70.414062 323.390625 77.058594 321.699219 L 117.875 311.308594 C 119.296875 310.945312 120.738281 310.839844 122.199219 310.988281 C 123.660156 311.140625 125.050781 311.535156 126.371094 312.179688 C 135.398438 316.5625 144.785156 319.933594 154.539062 322.289062 C 164.292969 324.640625 174.1875 325.925781 184.21875 326.140625 C 262.683594 327.917969 327.085938 265.21875 327.332031 186.734375 C 327.574219 109.109375 264.589844 46.136719 186.960938 46.398438 Z M 187.441406 308.941406 C 185.433594 308.941406 183.429688 308.890625 181.421875 308.792969 C 179.417969 308.695312 177.417969 308.546875 175.421875 308.351562 C 173.421875 308.152344 171.429688 307.90625 169.445312 307.613281 C 167.460938 307.320312 165.480469 306.976562 163.515625 306.585938 C 161.546875 306.191406 159.585938 305.753906 157.640625 305.265625 C 155.691406 304.777344 153.757812 304.242188 151.835938 303.660156 C 149.917969 303.078125 148.011719 302.449219 146.121094 301.773438 C 144.230469 301.09375 142.359375 300.375 140.503906 299.605469 C 138.648438 298.835938 136.816406 298.023438 135 297.164062 C 133.1875 296.308594 131.394531 295.40625 129.625 294.457031 C 127.851562 293.511719 126.109375 292.523438 124.386719 291.492188 C 122.664062 290.460938 120.96875 289.386719 119.300781 288.269531 C 117.628906 287.15625 115.988281 286 114.378906 284.804688 C 112.765625 283.609375 111.183594 282.375 109.632812 281.101562 C 108.078125 279.828125 106.558594 278.515625 105.074219 277.167969 C 103.585938 275.820312 102.132812 274.4375 100.714844 273.015625 C 99.292969 271.597656 97.910156 270.144531 96.5625 268.65625 C 95.214844 267.167969 93.902344 265.648438 92.628906 264.097656 C 91.355469 262.546875 90.121094 260.964844 88.925781 259.351562 C 87.730469 257.742188 86.574219 256.101562 85.460938 254.429688 C 84.34375 252.761719 83.269531 251.066406 82.238281 249.34375 C 81.207031 247.621094 80.21875 245.875 79.269531 244.105469 C 78.324219 242.335938 77.421875 240.542969 76.566406 238.730469 C 75.707031 236.914062 74.894531 235.078125 74.125 233.226562 C 73.355469 231.371094 72.632812 229.5 71.957031 227.609375 C 71.28125 225.71875 70.652344 223.8125 70.070312 221.890625 C 69.488281 219.972656 68.953125 218.039062 68.464844 216.089844 C 67.976562 214.144531 67.535156 212.183594 67.144531 210.214844 C 66.753906 208.246094 66.410156 206.269531 66.117188 204.285156 C 65.820312 202.300781 65.574219 200.308594 65.378906 198.308594 C 65.183594 196.3125 65.035156 194.3125 64.9375 192.304688 C 64.835938 190.300781 64.789062 188.292969 64.789062 186.289062 C 64.789062 118.546875 119.703125 63.632812 187.441406 63.632812 C 254.917969 63.632812 309.667969 118.121094 310.09375 185.5 C 310.519531 253.101562 255.046875 308.941406 187.441406 308.941406 Z M 187.441406 308.941406 " fill-opacity="1" fill-rule="nonzero"/></g><path fill="#f2c400" d="M 165.519531 126.65625 L 165.578125 126.769531 L 172.894531 141.277344 C 173.285156 142.058594 173.613281 142.863281 173.878906 143.699219 C 174.140625 144.53125 174.335938 145.378906 174.460938 146.246094 C 174.585938 147.109375 174.644531 147.980469 174.628906 148.851562 C 174.617188 149.726562 174.53125 150.59375 174.378906 151.453125 C 174.222656 152.3125 174.003906 153.15625 173.710938 153.980469 C 173.421875 154.804688 173.066406 155.601562 172.648438 156.367188 C 172.230469 157.136719 171.753906 157.863281 171.21875 158.554688 C 170.683594 159.246094 170.09375 159.886719 169.457031 160.484375 C 168.820312 161.074219 168.234375 161.710938 167.699219 162.398438 C 167.164062 163.082031 166.6875 163.804688 166.269531 164.566406 C 165.851562 165.328125 165.5 166.117188 165.207031 166.9375 C 164.917969 167.753906 164.691406 168.59375 164.535156 169.445312 C 164.378906 170.300781 164.292969 171.164062 164.273438 172.03125 C 164.257812 172.898438 164.308594 173.765625 164.429688 174.625 C 164.550781 175.484375 164.738281 176.332031 164.996094 177.160156 C 165.25 177.988281 165.574219 178.792969 165.957031 179.574219 C 170.351562 188.390625 177.957031 200.546875 189.570312 209.316406 C 190.214844 209.808594 190.894531 210.246094 191.609375 210.636719 C 192.320312 211.027344 193.058594 211.363281 193.824219 211.640625 C 194.585938 211.917969 195.363281 212.140625 196.160156 212.304688 C 196.957031 212.464844 197.761719 212.570312 198.570312 212.609375 C 199.382812 212.652344 200.191406 212.636719 201 212.554688 C 201.808594 212.476562 202.609375 212.339844 203.394531 212.140625 C 204.183594 211.941406 204.953125 211.6875 205.703125 211.375 C 206.453125 211.0625 207.175781 210.695312 207.867188 210.273438 L 212.578125 207.40625 C 213.636719 206.761719 214.75 206.246094 215.925781 205.859375 C 217.101562 205.472656 218.304688 205.21875 219.535156 205.105469 C 220.765625 204.992188 221.996094 205.019531 223.21875 205.1875 C 224.445312 205.355469 225.636719 205.65625 226.792969 206.097656 L 245.519531 213.214844 C 246.015625 213.40625 246.503906 213.617188 246.980469 213.855469 C 247.457031 214.09375 247.917969 214.351562 248.371094 214.632812 C 248.820312 214.917969 249.257812 215.222656 249.679688 215.546875 C 250.097656 215.871094 250.503906 216.21875 250.890625 216.582031 C 251.277344 216.945312 251.644531 217.332031 251.996094 217.730469 C 252.34375 218.132812 252.671875 218.550781 252.980469 218.984375 C 253.289062 219.417969 253.578125 219.863281 253.839844 220.328125 C 254.105469 220.789062 254.347656 221.261719 254.566406 221.746094 C 254.785156 222.230469 254.976562 222.726562 255.144531 223.230469 C 255.316406 223.734375 255.460938 224.246094 255.578125 224.765625 C 255.699219 225.285156 255.792969 225.808594 255.859375 226.335938 C 255.925781 226.863281 255.96875 227.394531 255.984375 227.925781 C 256 228.457031 255.988281 228.988281 255.953125 229.519531 C 255.917969 230.050781 255.855469 230.578125 255.765625 231.101562 C 255.675781 231.625 255.5625 232.144531 255.421875 232.660156 C 255.285156 233.171875 255.121094 233.679688 254.929688 234.175781 C 254.710938 234.746094 254.460938 235.304688 254.183594 235.851562 L 248.992188 245.90625 C 248.574219 246.722656 248.085938 247.492188 247.539062 248.226562 C 246.988281 248.957031 246.378906 249.636719 245.714844 250.265625 C 245.046875 250.894531 244.332031 251.460938 243.574219 251.96875 C 242.8125 252.476562 242.011719 252.917969 241.175781 253.292969 C 240.339844 253.664062 239.480469 253.964844 238.59375 254.195312 C 237.707031 254.421875 236.804688 254.574219 235.894531 254.648438 C 234.980469 254.722656 234.070312 254.722656 233.15625 254.644531 C 232.246094 254.566406 231.34375 254.410156 230.460938 254.179688 C 201.050781 246.570312 130.957031 220.125 125.308594 140.144531 C 125.253906 139.355469 125.253906 138.566406 125.316406 137.777344 C 125.375 136.988281 125.492188 136.207031 125.664062 135.4375 C 125.835938 134.664062 126.066406 133.90625 126.351562 133.167969 C 126.632812 132.429688 126.96875 131.714844 127.359375 131.027344 C 127.746094 130.335938 128.183594 129.679688 128.667969 129.054688 C 129.152344 128.425781 129.675781 127.839844 130.246094 127.289062 C 130.816406 126.742188 131.425781 126.238281 132.066406 125.777344 C 132.710938 125.316406 133.386719 124.90625 134.089844 124.542969 L 143.640625 119.636719 C 144.113281 119.394531 144.597656 119.171875 145.09375 118.976562 C 145.585938 118.78125 146.089844 118.609375 146.601562 118.464844 C 147.113281 118.316406 147.632812 118.199219 148.15625 118.101562 C 148.679688 118.007812 149.207031 117.9375 149.734375 117.894531 C 150.265625 117.847656 150.796875 117.832031 151.328125 117.839844 C 151.863281 117.847656 152.390625 117.882812 152.921875 117.945312 C 153.449219 118.003906 153.972656 118.089844 154.492188 118.203125 C 155.015625 118.316406 155.527344 118.453125 156.035156 118.613281 C 156.542969 118.777344 157.039062 118.964844 157.527344 119.175781 C 158.015625 119.386719 158.492188 119.621094 158.957031 119.878906 C 159.421875 120.140625 159.875 120.417969 160.3125 120.722656 C 160.75 121.023438 161.171875 121.347656 161.578125 121.691406 C 161.984375 122.035156 162.371094 122.398438 162.742188 122.78125 C 163.113281 123.164062 163.460938 123.5625 163.792969 123.980469 C 164.125 124.398438 164.433594 124.828125 164.722656 125.277344 C 165.011719 125.722656 165.277344 126.183594 165.519531 126.65625 Z M 165.519531 126.65625 " fill-opacity="1" fill-rule="nonzero"/></svg>